<svg xmlns="http://www.w3.org/2000/svg" version="1.1" xmlns:xlink="http://www.w3.org/1999/xlink" xmlns:svgjs="http://svgjs.dev/svgjs" viewBox="0 0 800 800"><g stroke-width="1" stroke="#ffffff" fill="none"><polygon points="400,145.375 60.5,654.625 739.5,654.625" transform="rotate(171.5, 400, 400)" opacity="0.05"></polygon><polygon points="400,181.75 109,618.25 691,618.25" transform="rotate(147, 400, 400)" opacity="0.21"></polygon><polygon points="400,218.125 157.5,581.875 642.5,581.875" transform="rotate(122.5, 400, 400)" opacity="0.37"></polygon><polygon points="400,254.5 206,545.5 594,545.5" transform="rotate(98, 400, 400)" opacity="0.53"></polygon><polygon points="400,290.875 254.5,509.125 545.5,509.125" transform="rotate(73.5, 400, 400)" opacity="0.68"></polygon><polygon points="400,327.25 303,472.75 497,472.75" transform="rotate(49, 400, 400)" opacity="0.84"></polygon><polygon points="400,363.625 351.5,436.375 448.5,436.375" transform="rotate(24.5, 400, 400)" opacity="1.00"></polygon></g><defs><linearGradient x1="50%" y1="0%" x2="50%" y2="100%" id="gggyrate-grad"><stop stop-color="hsl(184, 74%, 44%)" stop-opacity="1" offset="0%"></stop><stop stop-color="hsl(332, 87%, 70%)" stop-opacity="1" offset="100%"></stop></linearGradient></defs></svg>